<?xml version="1.0" encoding="utf-8"?>
<svg width="513" height="512" viewBox="0 0 513 512" fill="none" xmlns="http://www.w3.org/2000/svg">
	<style type="text/css">
		.st0 {
			fill: #7D00FF;
		}

		.st1 {
			fill: none;
			;
		}
	</style>
	<path id="MP_EM_LOGO" class="st0" d="M164.4,236.8c9.6,0,17.3-7.8,17.3-17.3c0-9.6-7.8-17.3-17.3-17.3c-9.6,0-17.3,7.8-17.3,17.3
	c0,0,0,0,0,0l0,0C147.1,229,154.8,236.8,164.4,236.8C164.4,236.8,164.4,236.8,164.4,236.8L164.4,236.8 M111.2,314.9
	c-23.4,0-42.3-18.9-42.3-42.3c0-23.4,18.9-42.3,42.3-42.3s42.3,18.9,42.3,42.3c0,0,0,0,0,0l0,0C153.5,296,134.6,314.9,111.2,314.9
	L111.2,314.9" />
</svg>