<?xml version="1.0" encoding="UTF-8"?>
<!DOCTYPE svg PUBLIC "-//W3C//DTD SVG 1.1//EN" "http://www.w3.org/Graphics/SVG/1.1/DTD/svg11.dtd">
<svg xmlns="http://www.w3.org/2000/svg" version="1.1" width="400px" height="400px" style="shape-rendering:geometricPrecision; text-rendering:geometricPrecision; image-rendering:optimizeQuality; fill-rule:evenodd; clip-rule:evenodd" xmlns:xlink="http://www.w3.org/1999/xlink">
<g><path style="opacity:1" fill="#fefefe" d="M -0.5,-0.5 C 132.833,-0.5 266.167,-0.5 399.5,-0.5C 399.5,132.833 399.5,266.167 399.5,399.5C 266.167,399.5 132.833,399.5 -0.5,399.5C -0.5,266.167 -0.5,132.833 -0.5,-0.5 Z"/></g>
<g><path style="opacity:1" fill="#7d03fc" d="M 385.5,55.5 C 385.846,64.9233 385.18,74.2566 383.5,83.5C 379.675,97.9631 371.342,109.13 358.5,117C 329.153,131.783 303.653,126.949 282,102.5C 269.018,82.9555 267.018,62.2888 276,40.5C 293.687,11.4353 318.853,2.26862 351.5,13C 369.866,21.5762 381.199,35.7429 385.5,55.5 Z"/></g>
<g><path style="opacity:1" fill="#833cdc" d="M 385.5,55.5 C 386.655,62.6549 386.822,69.9882 386,77.5C 385.76,79.8516 384.927,81.8516 383.5,83.5C 385.18,74.2566 385.846,64.9233 385.5,55.5 Z"/></g>
<g><path style="opacity:1" fill="#7d01fd" d="M 162.5,104.5 C 167.527,104.503 172.527,104.836 177.5,105.5C 186.11,108.032 194.776,110.698 203.5,113.5C 224.334,122.676 242.5,135.676 258,152.5C 263.263,158.706 267.763,165.373 271.5,172.5C 271.285,174.179 271.952,175.179 273.5,175.5C 280.851,187.879 285.851,201.212 288.5,215.5C 287.667,223.488 287.501,231.488 288,239.5C 288.333,235.167 288.667,230.833 289,226.5C 289.958,229.075 290.458,231.741 290.5,234.5C 289.664,242.521 288.664,250.521 287.5,258.5C 288.722,265.167 288.722,271.834 287.5,278.5C 272.683,333.116 238.016,368.116 183.5,383.5C 166.99,387.22 150.324,388.22 133.5,386.5C 128.317,386.286 123.317,385.286 118.5,383.5C 118.029,382.099 117.362,380.766 116.5,379.5C 112.622,377.469 108.622,375.636 104.5,374C 104.957,373.586 105.291,373.086 105.5,372.5C 104.333,372.167 103.167,371.833 102,371.5C 99.761,372.091 97.5943,372.758 95.5,373.5C 95.2411,370.52 96.5744,368.687 99.5,368C 92.9557,367.536 86.289,367.702 79.5,368.5C 47.1322,350.103 25.4656,323.103 14.5,287.5C 14.2886,282.941 13.622,278.441 12.5,274C 14.6644,268.02 14.9977,261.853 13.5,255.5C 12.6735,259.459 12.1735,263.459 12,267.5C 11.6667,266.833 11.3333,266.167 11,265.5C 10.5001,251.504 10.3334,237.504 10.5,223.5C 11.5,223.5 12.5,223.5 13.5,223.5C 13.1703,220.843 12.837,218.176 12.5,215.5C 14.0285,210.676 15.0285,205.676 15.5,200.5C 18.5741,189.689 23.2407,179.689 29.5,170.5C 30.4822,169.859 31.4822,169.193 32.5,168.5C 33.451,169.326 34.451,169.492 35.5,169C 34.6198,167.644 34.2865,166.144 34.5,164.5C 35.5,164.5 36.5,164.5 37.5,164.5C 37.5,162.833 37.5,161.167 37.5,159.5C 39.6663,159.579 41.6663,160.246 43.5,161.5C 46.0278,160.831 46.0278,159.998 43.5,159C 43.8333,158.667 44.1667,158.333 44.5,158C 42.842,157.275 42.342,156.108 43,154.5C 43.3333,155.167 43.6667,155.833 44,156.5C 45,155.5 46,154.5 47,153.5C 46.6667,155.167 46.3333,156.833 46,158.5C 47.4907,156.996 49.324,156.163 51.5,156C 53.6667,152.5 56.5,149.667 60,147.5C 60.49,146.207 60.6567,144.873 60.5,143.5C 61.5,143.5 62.5,143.5 63.5,143.5C 63.5,140.167 63.5,136.833 63.5,133.5C 64.8734,133.657 66.2068,133.49 67.5,133C 69.596,131.234 71.9293,129.901 74.5,129C 75.1712,128.014 75.1712,126.847 74.5,125.5C 76.3904,125.703 77.8904,125.037 79,123.5C 79.9589,125.658 81.4589,125.991 83.5,124.5C 85.8912,123.809 85.8912,122.809 83.5,121.5C 87.4814,121.295 91.1481,122.629 94.5,125.5C 95.7388,123.993 95.4054,122.826 93.5,122C 97.3749,120.48 101.375,120.146 105.5,121C 107.158,122.663 109.158,123.496 111.5,123.5C 111.5,122.167 111.5,120.833 111.5,119.5C 110.167,119.5 108.833,119.5 107.5,119.5C 107.5,118.167 107.5,116.833 107.5,115.5C 108.833,115.5 110.167,115.5 111.5,115.5C 111.5,114.167 111.5,112.833 111.5,111.5C 113.199,111.66 114.866,111.494 116.5,111C 116.167,110.667 115.833,110.333 115.5,110C 121.774,107.06 128.44,105.393 135.5,105C 144.494,104.5 153.494,104.334 162.5,104.5 Z"/></g>
<g><path style="opacity:1" fill="#f4d8fd" d="M 177.5,105.5 C 182.313,105.857 186.98,106.857 191.5,108.5C 192.442,108.392 193.275,108.059 194,107.5C 197.34,109.363 200.507,111.363 203.5,113.5C 194.776,110.698 186.11,108.032 177.5,105.5 Z"/></g>
<g><path style="opacity:1" fill="#7f16f3" d="M 162.5,104.5 C 153.494,104.334 144.494,104.5 135.5,105C 128.44,105.393 121.774,107.06 115.5,110C 115.833,110.333 116.167,110.667 116.5,111C 114.866,111.494 113.199,111.66 111.5,111.5C 111.5,112.833 111.5,114.167 111.5,115.5C 110.167,115.5 108.833,115.5 107.5,115.5C 107.5,116.833 107.5,118.167 107.5,119.5C 108.833,119.5 110.167,119.5 111.5,119.5C 111.5,120.833 111.5,122.167 111.5,123.5C 109.158,123.496 107.158,122.663 105.5,121C 101.375,120.146 97.3749,120.48 93.5,122C 95.4054,122.826 95.7388,123.993 94.5,125.5C 91.1481,122.629 87.4814,121.295 83.5,121.5C 85.8912,122.809 85.8912,123.809 83.5,124.5C 81.4589,125.991 79.9589,125.658 79,123.5C 77.8904,125.037 76.3904,125.703 74.5,125.5C 101.257,107.811 130.591,100.811 162.5,104.5 Z"/></g>
<g><path style="opacity:1" fill="#7e14f3" d="M 74.5,125.5 C 75.1712,126.847 75.1712,128.014 74.5,129C 71.9293,129.901 69.596,131.234 67.5,133C 66.2068,133.49 64.8734,133.657 63.5,133.5C 63.5,136.833 63.5,140.167 63.5,143.5C 62.5,143.5 61.5,143.5 60.5,143.5C 60.6567,144.873 60.49,146.207 60,147.5C 56.5,149.667 53.6667,152.5 51.5,156C 49.324,156.163 47.4907,156.996 46,158.5C 46.3333,156.833 46.6667,155.167 47,153.5C 46,154.5 45,155.5 44,156.5C 43.6667,155.833 43.3333,155.167 43,154.5C 42.342,156.108 42.842,157.275 44.5,158C 44.1667,158.333 43.8333,158.667 43.5,159C 46.0278,159.998 46.0278,160.831 43.5,161.5C 41.6663,160.246 39.6663,159.579 37.5,159.5C 37.5,161.167 37.5,162.833 37.5,164.5C 36.5,164.5 35.5,164.5 34.5,164.5C 34.2865,166.144 34.6198,167.644 35.5,169C 34.451,169.492 33.451,169.326 32.5,168.5C 31.4822,169.193 30.4822,169.859 29.5,170.5C 40.8333,151.833 55.8333,136.833 74.5,125.5 Z"/></g>
<g><path style="opacity:1" fill="#8c61ca" d="M 271.5,172.5 C 272.906,172.973 273.573,173.973 273.5,175.5C 271.952,175.179 271.285,174.179 271.5,172.5 Z"/></g>
<g><path style="opacity:1" fill="#7b1bec" d="M 15.5,200.5 C 15.0285,205.676 14.0285,210.676 12.5,215.5C 12.837,218.176 13.1703,220.843 13.5,223.5C 12.5,223.5 11.5,223.5 10.5,223.5C 10.3334,237.504 10.5001,251.504 11,265.5C 11.3333,266.167 11.6667,266.833 12,267.5C 12.1735,263.459 12.6735,259.459 13.5,255.5C 14.9977,261.853 14.6644,268.02 12.5,274C 13.622,278.441 14.2886,282.941 14.5,287.5C 10.0313,273.65 8.03132,259.317 8.5,244.5C 7.9041,229.231 10.2374,214.565 15.5,200.5 Z"/></g>
<g><path style="opacity:1" fill="#e0b8f8" d="M 290.5,223.5 C 291.829,228.792 292.496,234.458 292.5,240.5C 292.499,246.343 292.166,252.01 291.5,257.5C 291.717,246.14 291.384,234.807 290.5,223.5 Z"/></g>
<g><path style="opacity:1" fill="#8017ed" d="M 288.5,215.5 C 289.531,217.961 290.198,220.627 290.5,223.5C 291.384,234.807 291.717,246.14 291.5,257.5C 290.711,264.73 289.378,271.73 287.5,278.5C 288.722,271.834 288.722,265.167 287.5,258.5C 288.664,250.521 289.664,242.521 290.5,234.5C 290.458,231.741 289.958,229.075 289,226.5C 288.667,230.833 288.333,235.167 288,239.5C 287.501,231.488 287.667,223.488 288.5,215.5 Z"/></g>
<g><path style="opacity:1" fill="#8216f5" d="M 118.5,383.5 C 104.475,381.049 91.4751,376.049 79.5,368.5C 86.289,367.702 92.9557,367.536 99.5,368C 96.5744,368.687 95.2411,370.52 95.5,373.5C 97.5943,372.758 99.761,372.091 102,371.5C 103.167,371.833 104.333,372.167 105.5,372.5C 105.291,373.086 104.957,373.586 104.5,374C 108.622,375.636 112.622,377.469 116.5,379.5C 117.362,380.766 118.029,382.099 118.5,383.5 Z"/></g>
<g><path style="opacity:1" fill="#f9e2fe" d="M 183.5,383.5 C 182.602,384.158 181.602,384.824 180.5,385.5C 165.933,388.107 151.266,388.94 136.5,388C 135.263,387.768 134.263,387.268 133.5,386.5C 150.324,388.22 166.99,387.22 183.5,383.5 Z"/></g>
</svg>
